<svg xmlns="http://www.w3.org/2000/svg" xmlns:xlink="http://www.w3.org/1999/xlink" contentStyleType="text/css" data-diagram-type="DESCRIPTION" height="635px" preserveAspectRatio="none" style="width:901px;height:635px;background:#FFFFFF;" version="1.1" viewBox="0 0 901 635" width="901px" zoomAndPan="magnify"><?plantuml 1.2026.6?><defs/><g><g class="title" data-source-line="5"><text fill="#000000" font-family="sans-serif" font-size="14" font-weight="700" lengthAdjust="spacing" textLength="373.3098" x="260.7201" y="22.9951">IssueScope - GitHub&#20179;&#24211;&#38382;&#31572;&#19982;Issue&#20998;&#26512;&#31995;&#32479; &#29992;&#20363;&#22270;</text></g><!--cluster IssueScope ??????--><g class="cluster" data-qualified-name="IssueScope ......" data-source-line="12" id="ent0005"><rect fill="none" height="456" rx="2.5" ry="2.5" style="stroke:#181818;stroke-width:1;" width="672.75" x="215" y="44.2969"/><text fill="#000000" font-family="sans-serif" font-size="12" font-weight="700" lengthAdjust="spacing" textLength="152.3384" x="475.2058" y="57.4355">IssueScope &#26234;&#33021;&#21161;&#25163;&#24179;&#21488;</text></g><!--entity UC1--><g class="entity" data-qualified-name="IssueScope .......UC1" data-source-line="13" id="ent0006"><ellipse cx="308.9947" cy="164.2958" fill="#F1F1F1" rx="71.6447" ry="16.7289" style="stroke:#181818;stroke-width:0.5;"/><text fill="#000000" font-family="sans-serif" font-size="12" lengthAdjust="spacing" textLength="118.1957" x="249.8968" y="167.7802">UC1 &#21516;&#27493;GitHub&#20179;&#24211;</text></g><!--entity UC9--><g class="entity" data-qualified-name="IssueScope .......UC9" data-source-line="14" id="ent0007"><ellipse cx="308.9891" cy="302.2947" fill="#F1F1F1" rx="64.2391" ry="15.2478" style="stroke:#181818;stroke-width:0.5;"/><text fill="#000000" font-family="sans-serif" font-size="12" lengthAdjust="spacing" textLength="100.6119" x="258.6831" y="305.7791">UC9 &#31649;&#29702;&#21516;&#27493;&#20179;&#24211;</text></g><!--entity UC2--><g class="entity" data-qualified-name="IssueScope .......UC2" data-source-line="15" id="ent0008"><ellipse cx="582.3591" cy="469.2947" fill="#F1F1F1" rx="64.2391" ry="15.2478" style="stroke:#181818;stroke-width:0.5;"/><text fill="#000000" font-family="sans-serif" font-size="12" lengthAdjust="spacing" textLength="100.6119" x="532.0531" y="472.7791">UC2 &#27983;&#35272;&#20179;&#24211;&#27010;&#35272;</text></g><!--entity UC3--><g class="entity" data-qualified-name="IssueScope .......UC3" data-source-line="16" id="ent0009"><ellipse cx="582.3591" cy="404.2947" fill="#F1F1F1" rx="64.2391" ry="15.2478" style="stroke:#181818;stroke-width:0.5;"/><text fill="#000000" font-family="sans-serif" font-size="12" lengthAdjust="spacing" textLength="100.6119" x="532.0531" y="407.7791">UC3 &#26597;&#30475;&#25991;&#20214;&#32467;&#26500;</text></g><!--entity UC4--><g class="entity" data-qualified-name="IssueScope .......UC4" data-source-line="17" id="ent0010"><ellipse cx="582.3583" cy="338.2985" fill="#F1F1F1" rx="67.1583" ry="15.8317" style="stroke:#181818;stroke-width:0.5;"/><text fill="#000000" font-family="sans-serif" font-size="12" lengthAdjust="spacing" textLength="107.6429" x="528.5368" y="341.7829">UC4 &#26597;&#30475;Issue&#21015;&#34920;</text></g><!--entity UC5--><g class="entity" data-qualified-name="IssueScope .......UC5" data-source-line="18" id="ent0011"><ellipse cx="308.9883" cy="235.2985" fill="#F1F1F1" rx="67.1583" ry="15.8317" style="stroke:#181818;stroke-width:0.5;"/><text fill="#000000" font-family="sans-serif" font-size="12" lengthAdjust="spacing" textLength="107.6429" x="255.1668" y="238.7829">UC5 &#20998;&#26512;Issue&#20998;&#31867;</text></g><!--entity UC6--><g class="entity" data-qualified-name="IssueScope .......UC6" data-source-line="19" id="ent0012"><ellipse cx="308.9851" cy="366.2939" fill="#F1F1F1" rx="54.8351" ry="13.367" style="stroke:#181818;stroke-width:0.5;"/><text fill="#000000" font-family="sans-serif" font-size="12" lengthAdjust="spacing" textLength="76.6117" x="270.6792" y="369.7783">UC6 &#26234;&#33021;&#38382;&#31572;</text></g><!--entity UC7--><g class="entity" data-qualified-name="IssueScope .......UC7" data-source-line="20" id="ent0013"><ellipse cx="308.9858" cy="94.294" fill="#F1F1F1" rx="77.9858" ry="17.9972" style="stroke:#181818;stroke-width:0.5;"/><text fill="#000000" font-family="sans-serif" font-size="12" lengthAdjust="spacing" textLength="132.7152" x="242.6282" y="97.7784">UC7 &#25509;&#25910;Webhook&#20107;&#20214;</text></g><!--entity UC8--><g class="entity" data-qualified-name="IssueScope .......UC8" data-source-line="21" id="ent0014"><ellipse cx="582.3587" cy="93.3006" fill="#F1F1F1" rx="72.2687" ry="16.8537" style="stroke:#181818;stroke-width:0.5;"/><text fill="#000000" font-family="sans-serif" font-size="12" lengthAdjust="spacing" textLength="119.643" x="522.5372" y="96.785">UC8 &#33258;&#21160;&#20998;&#31867;&#26032;Issue</text></g><g class="entity" data-qualified-name="IssueScope .......GMN15" data-source-line="23" id="ent0016"><path d="M511.96,145.3169 L511.96,155.0969 L380.58,162.4769 L511.96,163.0969 L511.96,169.2856 A0,0 0 0 0 511.96,169.2856 L652.7674,169.2856 A0,0 0 0 0 652.7674,169.2856 L652.7674,155.3169 L642.7674,145.3169 L511.96,145.3169 A0,0 0 0 0 511.96,145.3169" fill="#FEFFDD" style="stroke:#181818;stroke-width:0.5;"/><path d="M642.7674,145.3169 L642.7674,155.3169 L652.7674,155.3169 L642.7674,145.3169" fill="#FEFFDD" style="stroke:#181818;stroke-width:0.5;"/><text fill="#000000" font-family="sans-serif" font-size="12" lengthAdjust="spacing" textLength="119.8074" x="517.96" y="161.4555">&#36755;&#20837;URL&#25289;&#21462;&#20179;&#24211;&#25968;&#25454;</text></g><g class="entity" data-qualified-name="IssueScope .......GMN18" data-source-line="24" id="ent0019"><path d="M720.26,457.3169 L720.26,465.2969 L646.92,469.2969 L720.26,473.2969 L720.26,481.2856 A0,0 0 0 0 720.26,481.2856 L870.2488,481.2856 A0,0 0 0 0 870.2488,481.2856 L870.2488,467.3169 L860.2488,457.3169 L720.26,457.3169 A0,0 0 0 0 720.26,457.3169" fill="#FEFFDD" style="stroke:#181818;stroke-width:0.5;"/><path d="M860.2488,457.3169 L860.2488,467.3169 L870.2488,467.3169 L860.2488,457.3169" fill="#FEFFDD" style="stroke:#181818;stroke-width:0.5;"/><text fill="#000000" font-family="sans-serif" font-size="12" lengthAdjust="spacing" textLength="128.9888" x="726.26" y="473.4555">Star&#12289;&#35821;&#35328;&#12289;Forks&#32479;&#35745;</text></g><g class="entity" data-qualified-name="IssueScope .......GMN21" data-source-line="25" id="ent0022"><path d="M718.75,392.3169 L718.75,400.2969 L646.92,404.2969 L718.75,408.2969 L718.75,416.2856 A0,0 0 0 0 718.75,416.2856 L871.751,416.2856 A0,0 0 0 0 871.751,416.2856 L871.751,402.3169 L861.751,392.3169 L718.75,392.3169 A0,0 0 0 0 718.75,392.3169" fill="#FEFFDD" style="stroke:#181818;stroke-width:0.5;"/><path d="M861.751,392.3169 L861.751,402.3169 L871.751,402.3169 L861.751,392.3169" fill="#FEFFDD" style="stroke:#181818;stroke-width:0.5;"/><text fill="#000000" font-family="sans-serif" font-size="12" lengthAdjust="spacing" textLength="132.001" x="724.75" y="408.4555">&#25353;&#30446;&#24405;&#26641;&#21644;&#25991;&#20214;&#20998;&#31867;&#27983;&#35272;</text></g><g class="entity" data-qualified-name="IssueScope .......GMN24" data-source-line="26" id="ent0025"><path d="M736.75,326.3169 L736.75,334.2969 L649.8,338.2969 L736.75,342.2969 L736.75,350.2856 A0,0 0 0 0 736.75,350.2856 L853.7507,350.2856 A0,0 0 0 0 853.7507,350.2856 L853.7507,336.3169 L843.7507,326.3169 L736.75,326.3169 A0,0 0 0 0 736.75,326.3169" fill="#FEFFDD" style="stroke:#181818;stroke-width:0.5;"/><path d="M843.7507,326.3169 L843.7507,336.3169 L853.7507,336.3169 L843.7507,326.3169" fill="#FEFFDD" style="stroke:#181818;stroke-width:0.5;"/><text fill="#000000" font-family="sans-serif" font-size="12" lengthAdjust="spacing" textLength="96.0007" x="742.75" y="342.4555">&#25353;&#20998;&#31867;&#21644;&#29366;&#24577;&#31579;&#36873;</text></g><g class="entity" data-qualified-name="IssueScope .......GMN27" data-source-line="27" id="ent0028"><path d="M520.35,204.3169 L520.35,216.5869 L373.96,230.8169 L520.35,224.5869 L520.35,228.2856 A0,0 0 0 0 520.35,228.2856 L644.3818,228.2856 A0,0 0 0 0 644.3818,228.2856 L644.3818,214.3169 L634.3818,204.3169 L520.35,204.3169 A0,0 0 0 0 520.35,204.3169" fill="#FEFFDD" style="stroke:#181818;stroke-width:0.5;"/><path d="M634.3818,204.3169 L634.3818,214.3169 L644.3818,214.3169 L634.3818,204.3169" fill="#FEFFDD" style="stroke:#181818;stroke-width:0.5;"/><text fill="#000000" font-family="sans-serif" font-size="12" lengthAdjust="spacing" textLength="103.0318" x="526.35" y="220.4555">&#35268;&#21017;&#21028;&#26029;Issue&#31867;&#21035;</text></g><g class="entity" data-qualified-name="IssueScope .......GMN30" data-source-line="28" id="ent0031"><path d="M506.97,263.3169 L506.97,287.2856 L657.75,287.2856 L657.75,273.3169 L647.75,263.3169 L506.97,263.3169" fill="#FEFFDD" style="stroke:#181818;stroke-width:0.5;"/><path d="M647.75,263.3169 L647.75,273.3169 L657.75,273.3169 L647.75,263.3169" fill="#FEFFDD" style="stroke:#181818;stroke-width:1;"/><text fill="#000000" font-family="sans-serif" font-size="12" lengthAdjust="spacing" textLength="129.78" x="512.97" y="279.4555">LLM+&#24037;&#20855;&#35843;&#29992;&#33258;&#21160;&#22238;&#31572;</text></g><!--entity M--><g class="entity" data-qualified-name="M" data-source-line="7" id="ent0001"><ellipse cx="48.0003" cy="354.8269" fill="#F1F1F1" rx="8" ry="8" style="stroke:#181818;stroke-width:0.5;"/><path d="M48.0003,362.8269 L48.0003,389.8269 M35.0003,370.8269 L61.0003,370.8269 M48.0003,389.8269 L35.0003,404.8269 M48.0003,389.8269 L61.0003,404.8269" fill="none" style="stroke:#181818;stroke-width:0.5;"/><text fill="#000000" font-family="sans-serif" font-size="12" lengthAdjust="spacing" textLength="84.0006" x="6" y="417.4655">&#24320;&#28304;&#39033;&#30446;&#32500;&#25252;&#32773;</text><text fill="#000000" font-family="sans-serif" font-size="12" lengthAdjust="spacing" textLength="73.3242" x="6" y="431.4343">(Maintainer)</text></g><!--entity C--><g class="entity" data-qualified-name="C" data-source-line="8" id="ent0002"><ellipse cx="48.0026" cy="542.8269" fill="#F1F1F1" rx="8" ry="8" style="stroke:#181818;stroke-width:0.5;"/><path d="M48.0026,550.8269 L48.0026,577.8269 M35.0026,558.8269 L61.0026,558.8269 M48.0026,577.8269 L35.0026,592.8269 M48.0026,577.8269 L61.0026,592.8269" fill="none" style="stroke:#181818;stroke-width:0.5;"/><text fill="#000000" font-family="sans-serif" font-size="12" lengthAdjust="spacing" textLength="60.0005" x="9.07" y="605.4655">&#24320;&#21457;&#36129;&#29486;&#32773;</text><text fill="#000000" font-family="sans-serif" font-size="12" lengthAdjust="spacing" textLength="77.8652" x="9.07" y="619.4343">(Contributor)</text></g><!--entity GH--><g class="entity" data-qualified-name="GH" data-source-line="9" id="ent0003"><ellipse cx="48.0018" cy="52.8269" fill="#F1F1F1" rx="8" ry="8" style="stroke:#181818;stroke-width:0.5;"/><path d="M48.0018,60.8269 L48.0018,87.8269 M35.0018,68.8269 L61.0018,68.8269 M48.0018,87.8269 L35.0018,102.8269 M48.0018,87.8269 L61.0018,102.8269" fill="none" style="stroke:#181818;stroke-width:0.5;"/><text fill="#000000" font-family="sans-serif" font-size="12" lengthAdjust="spacing" textLength="41.584" x="19.32" y="115.4655">GitHub</text><text fill="#000000" font-family="sans-serif" font-size="12" lengthAdjust="spacing" textLength="57.3636" x="19.32" y="129.4343">(&#22806;&#37096;&#31995;&#32479;)</text></g><!--entity LLM--><g class="entity" data-qualified-name="LLM" data-source-line="10" id="ent0004"><ellipse cx="48.0018" cy="175.8269" fill="#F1F1F1" rx="8" ry="8" style="stroke:#181818;stroke-width:0.5;"/><path d="M48.0018,183.8269 L48.0018,210.8269 M35.0018,191.8269 L61.0018,191.8269 M48.0018,210.8269 L35.0018,225.8269 M48.0018,210.8269 L61.0018,225.8269" fill="none" style="stroke:#181818;stroke-width:0.5;"/><text fill="#000000" font-family="sans-serif" font-size="12" lengthAdjust="spacing" textLength="51.5392" x="19.32" y="238.4655">LLM &#26381;&#21153;</text><text fill="#000000" font-family="sans-serif" font-size="12" lengthAdjust="spacing" textLength="57.3636" x="19.32" y="252.4343">(&#22806;&#37096;&#31995;&#32479;)</text></g><!--link UC6 to GMN30--><g class="link" data-entity-1="ent0012" data-entity-2="ent0031" data-link-type="association" data-source-line="28" id="lnk32"><path d="M343.88,355.7169 C357.8,350.6069 373.72,343.7269 386.97,335.2969 C402.36,325.5069 400.72,315.5869 416.97,307.2969 C444.56,293.2269 477.64,285.3269 506.88,280.8969" fill="none" id="UC6-GMN30" style="stroke:#181818;stroke-width:1;stroke-dasharray:7,7;"/></g><!--link M to UC1--><g class="link" data-entity-1="ent0001" data-entity-2="ent0006" data-link-type="dependency" data-source-line="31" id="lnk33"><path d="M74.03,345.8769 C86.2,326.8969 102.08,305.4369 120,289.2969 C149.87,262.4069 175.54,277.9269 199,245.2969 C210.35,229.5169 194.52,217.1969 207,202.2969 C218.25,188.8769 230.0194,181.806 246.4394,176.186" fill="none" id="M-to-UC1" style="stroke:#181818;stroke-width:1;"/><polygon fill="#181818" points="251.17,174.5669,241.3596,173.6968,246.4394,176.186,243.9502,181.2658,251.17,174.5669" style="stroke:#181818;stroke-width:1;stroke-linejoin:miter;stroke-miterlimit:10;"/></g><!--link M to UC9--><g class="link" data-entity-1="ent0001" data-entity-2="ent0007" data-link-type="dependency" data-source-line="32" id="lnk34"><path d="M90.18,375.7269 C122.02,364.5069 167.23,348.7169 207,335.2969 C227.62,328.3369 245.9336,322.3287 264.8136,316.2087" fill="none" id="M-to-UC9" style="stroke:#181818;stroke-width:1;"/><polygon fill="#181818" points="269.57,314.6669,259.7751,313.637,264.8136,316.2087,262.242,321.2472,269.57,314.6669" style="stroke:#181818;stroke-width:1;stroke-linejoin:miter;stroke-miterlimit:10;"/></g><!--link M to UC2--><g class="link" data-entity-1="ent0001" data-entity-2="ent0008" data-link-type="dependency" data-source-line="33" id="lnk35"><path d="M70.03,434.6469 C82.12,456.2369 99.08,481.1769 120,498.2969 C152.25,524.6969 166.08,525.3769 207,533.2969 C325.03,556.1469 362.29,552.3869 476.97,516.2969 C504.27,507.7069 529.4252,496.1576 550.1152,485.7276" fill="none" id="M-to-UC2" style="stroke:#181818;stroke-width:1;"/><polygon fill="#181818" points="554.58,483.4769,544.7428,483.9564,550.1152,485.7276,548.344,491.1,554.58,483.4769" style="stroke:#181818;stroke-width:1;stroke-linejoin:miter;stroke-miterlimit:10;"/></g><!--link M to UC3--><g class="link" data-entity-1="ent0001" data-entity-2="ent0009" data-link-type="dependency" data-source-line="34" id="lnk36"><path d="M86.74,434.6069 C96.63,443.5769 107.93,451.9069 120,457.2969 C265.21,522.1769 337.13,558.0469 476.97,482.2969 C498.43,470.6769 488.3,452.0169 506.97,436.2969 C516.98,427.8769 524.9049,423.2565 536.8349,418.3565" fill="none" id="M-to-UC3" style="stroke:#181818;stroke-width:1;"/><polygon fill="#181818" points="541.46,416.4569,531.6151,416.1762,536.8349,418.3565,534.6546,423.5763,541.46,416.4569" style="stroke:#181818;stroke-width:1;stroke-linejoin:miter;stroke-miterlimit:10;"/></g><!--link M to UC4--><g class="link" data-entity-1="ent0001" data-entity-2="ent0010" data-link-type="dependency" data-source-line="35" id="lnk37"><path d="M90.36,401.7469 C184.99,426.9169 413.94,481.6269 476.97,440.2969 C504.94,421.9669 483.41,395.0269 506.97,371.2969 C515.83,362.3769 522.9286,357.6466 534.4086,352.6966" fill="none" id="M-to-UC4" style="stroke:#181818;stroke-width:1;"/><polygon fill="#181818" points="539,350.7169,529.1518,350.6073,534.4086,352.6966,532.3193,357.9535,539,350.7169" style="stroke:#181818;stroke-width:1;stroke-linejoin:miter;stroke-miterlimit:10;"/></g><!--link M to UC5--><g class="link" data-entity-1="ent0001" data-entity-2="ent0011" data-link-type="dependency" data-source-line="36" id="lnk38"><path d="M90.36,353.0569 C99.83,345.1769 110.04,337.1769 120,330.2969 C153.06,307.4469 171.57,315.6669 199,286.2969 C204.7,280.1969 200.77,274.8569 207,269.2969 C220.19,257.5469 232.8055,251.2789 249.4455,246.2289" fill="none" id="M-to-UC5" style="stroke:#181818;stroke-width:1;"/><polygon fill="#181818" points="254.23,244.7769,244.4562,243.5629,249.4455,246.2289,246.7795,251.2181,254.23,244.7769" style="stroke:#181818;stroke-width:1;stroke-linejoin:miter;stroke-miterlimit:10;"/></g><!--link M to UC6--><g class="link" data-entity-1="ent0001" data-entity-2="ent0012" data-link-type="dependency" data-source-line="37" id="lnk39"><path d="M90.32,386.4669 C135.59,382.2769 203.2713,375.9983 252.0413,371.4783" fill="none" id="M-to-UC6" style="stroke:#181818;stroke-width:1;"/><polygon fill="#181818" points="257.02,371.0169,247.6893,367.8645,252.0413,371.4783,248.4275,375.8304,257.02,371.0169" style="stroke:#181818;stroke-width:1;stroke-linejoin:miter;stroke-miterlimit:10;"/></g><!--link C to UC2--><g class="link" data-entity-1="ent0002" data-entity-2="ent0008" data-link-type="dependency" data-source-line="39" id="lnk40"><path d="M87.31,582.1669 C164.27,588.4169 341.87,595.1169 476.97,541.2969 C511.13,527.6969 541.3584,504.4563 560.8784,487.6763" fill="none" id="C-to-UC2" style="stroke:#181818;stroke-width:1;"/><polygon fill="#181818" points="564.67,484.4169,555.2376,487.2505,560.8784,487.6763,560.4526,493.3171,564.67,484.4169" style="stroke:#181818;stroke-width:1;stroke-linejoin:miter;stroke-miterlimit:10;"/></g><!--link C to UC6--><g class="link" data-entity-1="ent0002" data-entity-2="ent0012" data-link-type="dependency" data-source-line="40" id="lnk41"><path d="M87.21,547.0169 C144.9,499.7969 247.9009,415.484 288.1909,382.504" fill="none" id="C-to-UC6" style="stroke:#181818;stroke-width:1;"/><polygon fill="#181818" points="292.06,379.3369,282.562,381.9424,288.1909,382.504,287.6294,388.1329,292.06,379.3369" style="stroke:#181818;stroke-width:1;stroke-linejoin:miter;stroke-miterlimit:10;"/></g><!--link GH to UC1--><g class="link" data-entity-1="ent0003" data-entity-2="ent0006" data-link-type="dependency" data-source-line="42" id="lnk42"><path d="M77.13,99.2669 C90.09,104.1469 105.73,109.7969 120,114.2969 C166.22,128.8769 214.837,141.6135 252.907,151.0535" fill="none" id="GH-to-UC1" style="stroke:#181818;stroke-width:1;stroke-dasharray:7,7;"/><polygon fill="#181818" points="257.76,152.2569,249.9873,146.2084,252.907,151.0535,248.0618,153.9732,257.76,152.2569" style="stroke:#181818;stroke-width:1;stroke-linejoin:miter;stroke-miterlimit:10;"/><text fill="#000000" font-family="sans-serif" font-size="12" lengthAdjust="spacing" textLength="77.6662" x="121" y="111.4355">&#25552;&#20379;REST API</text></g><!--link GH to UC7--><g class="link" data-entity-1="ent0003" data-entity-2="ent0013" data-link-type="dependency" data-source-line="43" id="lnk43"><path d="M76.72,88.9369 C113.25,89.7869 173.9913,91.1907 226.0713,92.4007" fill="none" id="GH-to-UC7" style="stroke:#181818;stroke-width:1;stroke-dasharray:7,7;"/><polygon fill="#181818" points="231.07,92.5169,222.1653,88.3089,226.0713,92.4007,221.9795,96.3068,231.07,92.5169" style="stroke:#181818;stroke-width:1;stroke-linejoin:miter;stroke-miterlimit:10;"/><text fill="#000000" font-family="sans-serif" font-size="12" lengthAdjust="spacing" textLength="48.0004" x="135.5" y="87.2055">&#25512;&#36865;&#20107;&#20214;</text></g><!--link LLM to UC6--><g class="link" data-entity-1="ent0004" data-entity-2="ent0012" data-link-type="dependency" data-source-line="44" id="lnk44"><path d="M77.01,238.5969 C106.96,266.4269 156.94,309.1269 207,335.2969 C225.69,345.0669 243.1381,351.0314 262.0081,356.0514" fill="none" id="LLM-to-UC6" style="stroke:#181818;stroke-width:1;stroke-dasharray:7,7;"/><polygon fill="#181818" points="266.84,357.3369,259.1709,351.1575,262.0081,356.0514,257.1142,358.8886,266.84,357.3369" style="stroke:#181818;stroke-width:1;stroke-linejoin:miter;stroke-miterlimit:10;"/><text fill="#000000" font-family="sans-serif" font-size="12" lengthAdjust="spacing" textLength="48.0004" x="135.5" y="274.2055">&#29983;&#25104;&#22238;&#31572;</text></g><!--link UC7 to UC8--><g class="link" data-entity-1="ent0013" data-entity-2="ent0014" data-link-type="dependency" data-source-line="46" id="lnk45"><path d="M387.39,94.0169 C425.93,93.8669 467.21,93.7154 504.9,93.5754" fill="none" id="UC7-to-UC8" style="stroke:#181818;stroke-width:1;stroke-dasharray:7,7;"/><polygon fill="#181818" points="509.9,93.5569,500.8852,89.5903,504.9,93.5754,500.9149,97.5903,509.9,93.5569" style="stroke:#181818;stroke-width:1;stroke-linejoin:miter;stroke-miterlimit:10;"/><text fill="#000000" font-family="sans-serif" font-size="12" lengthAdjust="spacing" textLength="58.1602" x="417.97" y="90.8455">&#171;include&#187;</text></g><!--link UC6 to UC2--><g class="link" data-entity-1="ent0012" data-entity-2="ent0008" data-link-type="dependency" data-source-line="47" id="lnk46"><path d="M337.56,378.0369 C359.08,387.1069 389.79,399.8369 416.97,410.2969 C460.55,427.0669 506.4676,443.374 539.8976,455.004" fill="none" id="UC6-to-UC2" style="stroke:#181818;stroke-width:1;stroke-dasharray:7,7;"/><polygon fill="#181818" points="544.62,456.6469,537.434,449.9118,539.8976,455.004,534.8054,457.4676,544.62,456.6469" style="stroke:#181818;stroke-width:1;stroke-linejoin:miter;stroke-miterlimit:10;"/><text fill="#000000" font-family="sans-serif" font-size="12" lengthAdjust="spacing" textLength="58.1602" x="417.97" y="407.4355">&#171;include&#187;</text></g><!--link UC6 to UC3--><g class="link" data-entity-1="ent0012" data-entity-2="ent0009" data-link-type="dependency" data-source-line="48" id="lnk47"><path d="M357.5,372.7669 C390.92,377.3369 436.69,383.6269 476.97,389.2969 C493.11,391.5669 505.6908,393.3659 521.7008,395.6659" fill="none" id="UC6-to-UC3" style="stroke:#181818;stroke-width:1;stroke-dasharray:7,7;"/><polygon fill="#181818" points="526.65,396.3769,518.3103,391.1377,521.7008,395.6659,517.1727,399.0564,526.65,396.3769" style="stroke:#181818;stroke-width:1;stroke-linejoin:miter;stroke-miterlimit:10;"/><text fill="#000000" font-family="sans-serif" font-size="12" lengthAdjust="spacing" textLength="58.1602" x="417.97" y="378.1255">&#171;include&#187;</text></g><!--link UC6 to UC4--><g class="link" data-entity-1="ent0012" data-entity-2="ent0010" data-link-type="dependency" data-source-line="49" id="lnk48"><path d="M339.89,354.7969 C361.06,347.2969 390.31,338.1969 416.97,334.2969 C450.87,329.3369 484.1203,329.5856 515.1803,331.5856" fill="none" id="UC6-to-UC4" style="stroke:#181818;stroke-width:1;stroke-dasharray:7,7;"/><polygon fill="#181818" points="520.17,331.9069,511.4456,327.3368,515.1803,331.5856,510.9316,335.3203,520.17,331.9069" style="stroke:#181818;stroke-width:1;stroke-linejoin:miter;stroke-miterlimit:10;"/><text fill="#000000" font-family="sans-serif" font-size="12" lengthAdjust="spacing" textLength="58.1602" x="417.97" y="327.5855">&#171;include&#187;</text></g><?plantuml-src TPDRQnf168RlvrSCzgQb910FEPGW56aE4A74XjxqPjMDMRIxONUzQ4l1D2TFYQOQGp0a5M9ZMxIMf4cZZN-cpipwBphhZ1iNpCB2Y-_pEjzytxTQL9BN1LLu2zU5K5I8Y07zNKo4gXZI1JaI4q5CNDMXha1LYgpfC2oPZgJ8GBE2GHgCg4fS3lkKcAB2HtFzPuW8Ywj2FARFAR8UaDwBSC89T4cdnongMbmCX9Hr4Ox1UKbVY0UxxG9g5Nf73L8lTl_izmcKtC6dUNBP9kqpI8grRYU3oXq0X91EptEWlmdSolSgjwJS8Eqhd3ut4jjlvCT-GP9r-ehg4mSKDEWV2g3SWN5L8Ta6GtsqD5KAngdDMD-0PLLH19sNUfirLWHZvXS6qDAI7-AJFPIkZ0If3O3LKkWOkZO-RXcRToZz3QSowFOIvPeE-0506DV4aA1HTiKt0L4-Y-lLuVxq_vPQTd86aaQ5v7SORoDdxAGJujyvuoB96Fpr4zMSTDf95yHdLNAImQNTRlkQj0luT8kJBZlfvYGVsP5HgN7GRGSza0rqC5logyr1ZnsSvErXsy2PIJip1V5-5HUlNul1DKM9TbiPMYP7f-peD3HslwDqZHs9Iyr-0PoT1XIM5Ltacwwicls5pw3HAQ3jwiho4iwaKAx4EtROn7kD4GadJGHqGVsNs31-rerQWeevHOrgT1cCHcL4maKJE9kYkulk3l6N0_GvothDo-pFQKJEpNACeY6IliQ93L8lznAf4RZ7lCh55aeUe-GvBjNxTpUJoHyZw4bAqwrzYcwgQFl6Q6xIhuuthtnAPm4-0k27OsFU_X8Er8obd9PoMSfjAO-b9W7mMH7V_O_p2t1ytCidW7FvRgUy_2Bm2Zv_kNZlJPdUVgsNs61J1-Pdo2opVb8ymyayhnUOEFEcgJSxAycXM3miUht0f9dZVD1nFUYuxSv_?></g></svg>